<?xml version="1.0" standalone="no"?>
<!DOCTYPE svg PUBLIC "-//W3C//DTD SVG 20010904//EN"
 "http://www.w3.org/TR/2001/REC-SVG-20010904/DTD/svg10.dtd">
<svg version="1.0" xmlns="http://www.w3.org/2000/svg"
 width="500.000000pt" height="500.000000pt" viewBox="0 0 500.000000 500.000000"
 preserveAspectRatio="xMidYMid meet">
<metadata>
Created by potrace 1.14, written by Peter Selinger 2001-2017
</metadata>
<g transform="translate(0.000000,500.000000) scale(0.100000,-0.100000)"
fill="#000000" stroke="none">
<path d="M1245 3348 c-91 -17 -191 -73 -269 -152 -122 -122 -166 -234 -162
-409 5 -159 55 -270 175 -385 59 -57 184 -124 256 -138 22 -4 251 -8 510 -9
259 -1 480 -5 492 -9 12 -4 26 -20 32 -37 9 -27 7 -33 -14 -55 l-24 -24 -593
0 -593 0 -245 -245 -245 -245 880 3 c484 1 890 6 903 9 13 4 33 10 45 13 174
50 345 243 373 422 8 50 8 162 1 206 -36 204 -206 383 -412 437 -37 10 -171
14 -534 14 l-483 1 -20 25 c-19 24 -18 63 3 85 6 6 166 11 432 12 232 1 441 2
463 2 37 1 43 5 54 32 61 147 255 339 429 426 l66 33 -735 -1 c-411 -1 -757
-6 -785 -11z"/>
<path d="M2975 3353 c-154 -31 -244 -65 -340 -126 -93 -59 -180 -143 -248
-238 -44 -63 -97 -162 -97 -184 0 -6 29 -16 64 -22 107 -18 202 -71 294 -162
l79 -80 11 50 c24 101 112 202 217 250 49 23 55 23 523 25 l474 2 111 108 c62
60 173 171 247 247 l134 137 -724 -1 c-399 -1 -734 -3 -745 -6z"/>
<path d="M2824 2183 c-1 -156 -42 -271 -134 -376 l-40 -45 33 -19 c77 -44 147
-69 247 -88 59 -11 202 -14 673 -15 l597 -1 0 246 0 245 -563 0 c-584 0 -655
4 -709 42 -14 10 -29 18 -32 18 -4 0 -19 11 -34 25 -15 14 -29 25 -32 25 -3 0
-6 -26 -6 -57z"/>
</g>
</svg>
